<svg width="30" height="292" viewBox="0 0 30 292" fill="none" xmlns="http://www.w3.org/2000/svg">
<path d="M14.2929 290.707C14.6834 291.098 15.3166 291.098 15.7071 290.707L22.0711 284.343C22.4616 283.953 22.4616 283.319 22.0711 282.929C21.6805 282.538 21.0474 282.538 20.6569 282.929L15 288.586L9.34315 282.929C8.95262 282.538 8.31946 282.538 7.92893 282.929C7.53841 283.319 7.53841 283.953 7.92893 284.343L14.2929 290.707ZM14 0V2.01389H16V0L14 0ZM14 6.04167V10.0694H16V6.04167H14ZM14 14.0972L14 18.125H16V14.0972H14ZM14 22.1528V26.1806H16V22.1528H14ZM14 30.2083V34.2361H16L16 30.2083H14ZM14 38.2639V42.2917H16V38.2639H14ZM14 46.3195V50.3472H16V46.3195H14ZM14 54.375V58.4028H16V54.375H14ZM14 62.4306V66.4583H16V62.4306H14ZM14 70.4861L14 74.5139H16V70.4861H14ZM14 78.5417V82.5695H16V78.5417H14ZM14 86.5972V90.625H16V86.5972H14ZM14 94.6528V98.6806H16V94.6528H14ZM14 102.708V106.736H16V102.708H14ZM14 110.764V114.792H16V110.764H14ZM14 118.819V122.847H16V118.819H14ZM14 126.875V130.903H16V126.875H14ZM14 134.931V138.958H16V134.931H14ZM14 142.986V147.014H16L16 142.986H14ZM14 151.042V155.069H16V151.042H14ZM14 159.097V163.125H16V159.097H14ZM14 167.153V171.181H16V167.153H14ZM14 175.208V179.236H16V175.208H14ZM14 183.264V187.292H16V183.264H14ZM14 191.319V195.347H16V191.319H14ZM14 199.375V203.403H16L16 199.375H14ZM14 207.43V211.458H16V207.43H14ZM14 215.486L14 219.514H16V215.486H14ZM14 223.542V227.569H16V223.542H14ZM14 231.597V235.625H16V231.597H14ZM14 239.653V243.68H16V239.653H14ZM14 247.708V251.736H16V247.708H14ZM14 255.764V259.791H16V255.764H14ZM14 263.819V267.847H16V263.819H14ZM14 271.875L14 275.903H16V271.875H14ZM14 279.93V283.958H16V279.93H14ZM14 287.986V290H16V287.986H14ZM13.5858 291.414C14.3668 292.195 15.6332 292.195 16.4142 291.414L29.1421 278.686C29.9232 277.905 29.9232 276.639 29.1421 275.858C28.3611 275.077 27.0948 275.077 26.3137 275.858L15 287.172L3.68629 275.858C2.90524 275.077 1.63891 275.077 0.857864 275.858C0.0768156 276.639 0.0768156 277.905 0.857864 278.686L13.5858 291.414ZM13 0V2.01389H17V0L13 0ZM13 6.04167V10.0694H17V6.04167H13ZM13 14.0972L13 18.125H17V14.0972H13ZM13 22.1528V26.1806H17V22.1528H13ZM13 30.2083V34.2361H17L17 30.2083H13ZM13 38.2639L13 42.2917H17V38.2639H13ZM13 46.3195V50.3472H17V46.3195H13ZM13 54.375V58.4028H17V54.375H13ZM13 62.4306V66.4583H17V62.4306H13ZM13 70.4861L13 74.5139H17V70.4861H13ZM13 78.5417V82.5695H17V78.5417H13ZM13 86.5972V90.625H17V86.5972H13ZM13 94.6528V98.6806H17V94.6528H13ZM13 102.708V106.736H17V102.708H13ZM13 110.764V114.792H17V110.764H13ZM13 118.819V122.847H17V118.819H13ZM13 126.875V130.903H17V126.875H13ZM13 134.931V138.958H17V134.931H13ZM13 142.986V147.014H17V142.986H13ZM13 151.042V155.069H17V151.042H13ZM13 159.097V163.125H17V159.097H13ZM13 167.153V171.181H17V167.153H13ZM13 175.208V179.236H17V175.208H13ZM13 183.264V187.292H17V183.264H13ZM13 191.319V195.347H17V191.319H13ZM13 199.375V203.403H17L17 199.375H13ZM13 207.43V211.458H17V207.43H13ZM13 215.486L13 219.514H17V215.486H13ZM13 223.542V227.569H17V223.542H13ZM13 231.597V235.625H17V231.597H13ZM13 239.653V243.68H17V239.653H13ZM13 247.708L13 251.736H17V247.708H13ZM13 255.764V259.791H17V255.764H13ZM13 263.819V267.847H17L17 263.819H13ZM13 271.875L13 275.903H17V271.875H13ZM13 279.93V283.958H17V279.93H13ZM13 287.986V290H17V287.986H13Z" fill="#1B2531" fill-opacity="0.47"/>
</svg>
