<svg width="124" height="132" viewBox="0 0 124 132" fill="none" xmlns="http://www.w3.org/2000/svg">
<g filter="url(#filter0_d)">
<path d="M48.7224 93.9185V93.5725L48.3986 93.4506C33.4165 87.8105 23.4631 73.5298 23.4631 57.4074C23.4631 36.1581 40.7508 18.8704 62.0002 18.8704C83.2495 18.8704 100.537 36.1581 100.537 57.4074C100.537 73.5298 90.5838 87.8105 75.6018 93.4506L75.278 93.5725V93.9185V114.815C75.278 115.809 74.4754 116.611 73.4817 116.611H71.1854H70.6854V117.111V121.704C70.6854 122.697 69.8828 123.5 68.8891 123.5H55.1113C54.1176 123.5 53.315 122.697 53.315 121.704V117.111V116.611H52.815H50.5187C49.525 116.611 48.7224 115.809 48.7224 114.815V93.9185ZM66.5928 119.907H67.0928V119.407V114.815C67.0928 113.821 67.8954 113.019 68.8891 113.019H71.1854H71.6854V112.519V101.037V100.537H71.1854H52.815H52.315V101.037V112.519V113.019H52.815H55.1113C56.105 113.019 56.9076 113.821 56.9076 114.815V119.407V119.907H57.4076H66.5928ZM72.9212 90.5863L72.9214 90.5862C87.2877 85.8619 96.9446 72.5264 96.9446 57.4074C96.9446 38.1386 81.269 22.463 62.0002 22.463C42.7314 22.463 27.0557 38.1386 27.0557 57.4074C27.0557 72.5264 36.7127 85.8619 51.0789 90.5862L51.0791 90.5863C51.8176 90.8288 52.315 91.5167 52.315 92.2927V96.4444V96.9444H52.815H71.1854H71.6854V96.4444V92.2927C71.6854 91.5187 72.1831 90.8287 72.9212 90.5863Z" fill="#27A1DA" stroke="#1B2531"/>
<path d="M63.7962 11.4815C63.7962 12.4752 62.9936 13.2778 61.9999 13.2778C61.0062 13.2778 60.2036 12.4752 60.2036 11.4815V2.2963C60.2036 1.30259 61.0062 0.5 61.9999 0.5C62.9936 0.5 63.7962 1.30259 63.7962 2.2963V11.4815Z" fill="#27A1DA" stroke="#1B2531"/>
<path d="M107.926 55.6111H117.111C118.105 55.6111 118.907 56.4137 118.907 57.4074C118.907 58.4011 118.105 59.2037 117.111 59.2037H107.926C106.932 59.2037 106.13 58.4011 106.13 57.4074C106.13 56.4137 106.932 55.6111 107.926 55.6111Z" fill="#27A1DA" stroke="#1B2531"/>
<path d="M6.88883 55.6111H16.074C17.0677 55.6111 17.8703 56.4137 17.8703 57.4074C17.8703 58.4011 17.0677 59.2037 16.074 59.2037H6.88883C5.89512 59.2037 5.09253 58.4011 5.09253 57.4074C5.09253 56.4137 5.89512 55.6111 6.88883 55.6111Z" fill="#27A1DA" stroke="#1B2531"/>
<path d="M93.2066 23.661L99.7006 17.167C100.401 16.4664 101.538 16.4648 102.24 17.167C102.943 17.8696 102.943 19.0043 102.24 19.7069L95.7465 26.2008C95.396 26.5513 94.9369 26.7272 94.4766 26.7272C94.0162 26.7272 93.5571 26.5513 93.2066 26.2008C92.504 25.4982 92.504 24.3636 93.2066 23.661Z" fill="#27A1DA" stroke="#1B2531"/>
<path d="M21.7596 95.1079L28.2535 88.614C28.9561 87.9114 30.0908 87.9114 30.7934 88.614C31.496 89.3166 31.496 90.4513 30.7934 91.1539L24.2995 97.6478C23.949 97.9983 23.4899 98.1742 23.0295 98.1742C22.5692 98.1742 22.1101 97.9983 21.7596 97.6478C21.057 96.9452 21.057 95.8105 21.7596 95.1079Z" fill="#27A1DA" stroke="#1B2531"/>
<path d="M93.2066 88.614C93.9092 87.9114 95.0439 87.9114 95.7465 88.614L102.24 95.1079C102.943 95.8105 102.943 96.9452 102.24 97.6478C101.89 97.9983 101.431 98.1742 100.97 98.1742C100.51 98.1742 100.051 97.9983 99.7006 97.6478L93.2066 91.1539C92.504 90.4513 92.504 89.3166 93.2066 88.614Z" fill="#27A1DA" stroke="#1B2531"/>
<path d="M29.5235 26.7272C29.0631 26.7272 28.604 26.5513 28.2535 26.2008L21.7596 19.7069C21.057 19.0043 21.057 17.8696 21.7596 17.167C22.4622 16.4645 23.5969 16.4645 24.2995 17.167L30.7934 23.661C31.496 24.3636 31.496 25.4982 30.7934 26.2008C30.4429 26.5513 29.9838 26.7272 29.5235 26.7272Z" fill="#27A1DA" stroke="#1B2531"/>
<path d="M34.9446 57.4074C34.9446 42.4889 47.0817 30.3518 62.0001 30.3518C62.9938 30.3518 63.7964 31.1544 63.7964 32.1481C63.7964 33.1418 62.9938 33.9444 62.0001 33.9444C49.0622 33.9444 38.5372 44.4695 38.5372 57.4074C38.5372 58.4011 37.7346 59.2037 36.7409 59.2037C35.7472 59.2037 34.9446 58.4011 34.9446 57.4074Z" fill="#27A1DA" stroke="#1B2531"/>
</g>
<defs>
<filter id="filter0_d" x="-4" y="0" width="132" height="132" filterUnits="userSpaceOnUse" color-interpolation-filters="sRGB">
<feFlood flood-opacity="0" result="BackgroundImageFix"/>
<feColorMatrix in="SourceAlpha" type="matrix" values="0 0 0 0 0 0 0 0 0 0 0 0 0 0 0 0 0 0 127 0"/>
<feOffset dy="4"/>
<feGaussianBlur stdDeviation="2"/>
<feColorMatrix type="matrix" values="0 0 0 0 0 0 0 0 0 0 0 0 0 0 0 0 0 0 0.25 0"/>
<feBlend mode="normal" in2="BackgroundImageFix" result="effect1_dropShadow"/>
<feBlend mode="normal" in="SourceGraphic" in2="effect1_dropShadow" result="shape"/>
</filter>
</defs>
</svg>
