<svg width="229" height="98" viewBox="0 0 229 98" fill="none" xmlns="http://www.w3.org/2000/svg">
<path d="M12.0849 55.4997C12.3608 56.2808 13.2177 56.6904 13.9989 56.4145L26.7283 51.9189C27.5095 51.643 27.9191 50.7862 27.6432 50.005C27.3673 49.2239 26.5104 48.8143 25.7293 49.0901L14.4142 53.0863L10.4181 41.7712C10.1422 40.99 9.28534 40.5804 8.5042 40.8563C7.72306 41.1322 7.31345 41.9891 7.58932 42.7702L12.0849 55.4997ZM224.049 17.6188C223.821 18.4856 223.594 19.3435 223.366 20.1927L226.263 20.9703C226.492 20.1159 226.722 19.2528 226.951 18.381L224.049 17.6188ZM221.997 25.1836C221.541 26.8125 221.084 28.407 220.627 29.9675L223.506 30.811C223.966 29.2388 224.426 27.633 224.886 25.9931L221.997 25.1836ZM219.254 34.5476C218.76 36.157 218.266 37.7275 217.772 39.2597L220.627 40.1809C221.126 38.6344 221.624 37.05 222.122 35.4273L219.254 34.5476ZM216.146 44.1591C215.603 45.7469 215.06 47.2895 214.516 48.7879L217.337 49.8108C217.887 48.2942 218.436 46.7339 218.984 45.1293L216.146 44.1591ZM212.885 53.1509C212.234 54.8368 211.583 56.4606 210.932 58.0237L213.701 59.178C214.363 57.5889 215.024 55.9404 215.684 54.2309L212.885 53.1509ZM208.97 62.5435C208.301 64.0239 207.631 65.4419 206.961 66.799L209.651 68.1274C210.337 66.7381 211.021 65.2893 211.704 63.7796L208.97 62.5435ZM204.571 71.3796C203.775 72.8223 202.978 74.1813 202.181 75.4596L204.727 77.0464C205.554 75.7202 206.377 74.3155 207.197 72.83L204.571 71.3796ZM199.386 79.6183C198.409 80.961 197.433 82.1858 196.458 83.2987L198.716 85.2748C199.754 84.0886 200.786 82.793 201.812 81.3842L199.386 79.6183ZM193.007 86.7899C191.767 87.8856 190.533 88.8082 189.305 89.5722L190.89 92.1195C192.272 91.2595 193.64 90.2344 194.994 89.038L193.007 86.7899ZM185.151 91.5813C183.651 92.1042 182.15 92.4145 180.645 92.5322L180.878 95.5231C182.642 95.3852 184.396 95.0216 186.139 94.414L185.151 91.5813ZM176.072 92.3212C174.588 92.0764 173.087 91.6648 171.565 91.0968L170.516 93.9074C172.198 94.5353 173.888 95.0013 175.583 95.2811L176.072 92.3212ZM167.199 89.0782C165.845 88.3371 164.478 87.4879 163.1 86.5396L161.399 89.0112C162.851 90.0097 164.304 90.9139 165.759 91.71L167.199 89.0782ZM159.217 83.64C157.962 82.6325 156.7 81.5544 155.43 80.4131L153.425 82.6443C154.731 83.8182 156.036 84.9329 157.339 85.9794L159.217 83.64ZM151.873 77.0762C150.711 75.9427 149.544 74.7643 148.371 73.5467L146.211 75.6277C147.402 76.865 148.591 78.0659 149.779 79.2238L151.873 77.0762ZM144.982 69.9395C143.876 68.7356 142.766 67.503 141.652 66.2464L139.407 68.2371C140.532 69.5048 141.654 70.7506 142.773 71.9692L144.982 69.9395ZM138.373 62.5005C137.296 61.2548 136.215 59.992 135.13 58.7162L132.845 60.6595C133.934 61.9402 135.02 63.2095 136.104 64.4628L138.373 62.5005ZM131.909 54.9074C130.84 53.6388 129.769 52.3628 128.693 51.0822L126.396 53.012C127.471 54.2918 128.544 55.5696 129.614 56.84L131.909 54.9074ZM125.477 47.2598C124.401 45.9844 123.322 44.7091 122.239 43.4383L119.956 45.3842C121.034 46.65 122.11 47.9212 123.184 49.194L125.477 47.2598ZM118.978 39.6421C117.88 38.3746 116.777 37.1155 115.671 35.8691L113.427 37.8607C114.524 39.097 115.619 40.3471 116.711 41.607L118.978 39.6421ZM112.312 32.142C111.172 30.8982 110.029 29.6719 108.881 28.4677L106.709 30.5378C107.842 31.726 108.972 32.9376 110.1 34.1684L112.312 32.142ZM105.366 24.8682C104.163 23.6675 102.955 22.4954 101.741 21.3571L99.6888 23.5448C100.877 24.6601 102.063 25.8106 103.247 26.9916L105.366 24.8682ZM98.004 17.9769C96.7062 16.8487 95.402 15.7638 94.0913 14.7288L92.232 17.0831C93.5024 18.0864 94.7703 19.1408 96.0357 20.2409L98.004 17.9769ZM90.0554 11.7202C88.624 10.7182 87.1837 9.78102 85.7344 8.91716L84.1983 11.4941C85.5791 12.3171 86.958 13.2139 88.335 14.1779L90.0554 11.7202ZM81.2575 6.50459C79.6779 5.74565 78.0862 5.08078 76.4826 4.52113L75.4941 7.3536C76.9831 7.87324 78.4711 8.49412 79.9584 9.20869L81.2575 6.50459ZM71.4837 3.13771C69.7776 2.79109 68.0591 2.57282 66.329 2.49564L66.1953 5.49266C67.7617 5.56253 69.3251 5.76044 70.8865 6.07765L71.4837 3.13771ZM61.0964 2.70121C59.413 2.91089 57.7244 3.26201 56.0312 3.76366L56.8834 6.64007C58.4205 6.18468 59.9481 5.86742 61.4672 5.6782L61.0964 2.70121ZM51.1108 5.64767C49.6291 6.34528 48.1466 7.1626 46.6634 8.10468L48.2718 10.6371C49.6542 9.75906 51.0265 9.00325 52.3887 8.36191L51.1108 5.64767ZM42.4541 11.1155C41.1851 12.1261 39.9153 13.2313 38.6445 14.4345L40.707 16.613C41.9195 15.4651 43.1248 14.4164 44.3229 13.4623L42.4541 11.1155ZM35.0184 18.1329C33.9473 19.3044 32.875 20.5478 31.8013 21.8653L34.1268 23.7605C35.1666 22.4847 36.2018 21.2845 37.2325 20.1572L35.0184 18.1329ZM28.5755 26.0425C27.6472 27.3082 26.7175 28.6307 25.7864 30.0116L28.2738 31.6887C29.1838 30.3392 30.0907 29.0491 30.9945 27.8169L28.5755 26.0425ZM23.0597 34.217C22.1494 35.6752 21.2376 37.1902 20.3242 38.7635L22.9187 40.2697C23.8167 38.7229 24.712 37.2354 25.6045 35.8057L23.0597 34.217ZM17.9808 42.9226C17.2059 44.3384 16.4298 45.7969 15.6524 47.2988L18.3167 48.6777C19.0838 47.1957 19.8491 45.7577 20.6124 44.3629L17.9808 42.9226ZM13.3167 51.9356C12.9268 52.7304 12.5366 53.5362 12.146 54.3532L14.8527 55.6471C15.2389 54.8391 15.6247 54.0424 16.01 53.2569L13.3167 51.9356ZM10.6706 55.9992C11.2223 57.5615 12.9361 58.3807 14.4984 57.8289L39.9573 48.8377C41.5196 48.2859 42.3388 46.5722 41.787 45.0099C41.2353 43.4476 39.5215 42.6284 37.9592 43.1801L15.3291 51.1724L7.33686 28.5422C6.7851 26.9799 5.07134 26.1607 3.50906 26.7125C1.94677 27.2642 1.12756 28.978 1.67932 30.5403L10.6706 55.9992ZM222.598 17.2377C222.371 18.1019 222.144 18.9573 221.917 19.804L227.712 21.359C227.942 20.5021 228.172 19.6365 228.401 18.7622L222.598 17.2377ZM220.553 24.7788C220.098 26.4023 219.643 27.9911 219.187 29.5458L224.945 31.2328C225.407 29.6548 225.869 28.0433 226.33 26.3979L220.553 24.7788ZM217.82 34.1078C217.328 35.7105 216.837 37.274 216.344 38.7991L222.055 40.6415C222.556 39.0878 223.056 37.4966 223.556 35.8671L217.82 34.1078ZM214.726 43.674C214.186 45.2533 213.646 46.7872 213.106 48.2764L218.747 50.3223C219.3 48.7965 219.852 47.2275 220.404 45.6143L214.726 43.674ZM211.485 52.6109C210.839 54.285 210.193 55.8964 209.547 57.4466L215.085 59.7551C215.753 58.1531 216.419 56.4922 217.083 54.7709L211.485 52.6109ZM207.604 61.9254C206.941 63.3912 206.278 64.7938 205.616 66.1348L210.995 68.7916C211.69 67.3862 212.381 65.922 213.071 64.3977L207.604 61.9254ZM203.258 70.6545C202.473 72.0757 201.69 73.4119 200.908 74.6663L206 77.8397C206.842 76.4896 207.678 75.0621 208.51 73.5551L203.258 70.6545ZM198.174 78.7354C197.22 80.045 196.272 81.2344 195.33 82.3106L199.844 86.2629C200.915 85.04 201.974 83.709 203.024 82.2671L198.174 78.7354ZM192.014 85.6658C190.831 86.7112 189.663 87.5826 188.513 88.2986L191.682 93.3931C193.142 92.4851 194.576 91.4088 195.987 90.1621L192.014 85.6658ZM184.657 90.1649C183.279 90.6455 181.904 90.9291 180.528 91.0368L180.995 97.0185C182.887 96.8706 184.768 96.4803 186.632 95.8304L184.657 90.1649ZM176.316 90.8412C174.939 90.6139 173.531 90.2295 172.089 89.6915L169.991 95.3127C171.754 95.9706 173.537 96.4638 175.339 96.7611L176.316 90.8412ZM167.919 87.7623C166.615 87.0487 165.292 86.2271 163.95 85.3038L160.549 90.247C162.037 91.2706 163.534 92.2023 165.039 93.0259L167.919 87.7623ZM160.156 82.4703C158.926 81.4823 157.685 80.4225 156.433 79.2975L152.422 83.7599C153.746 84.9501 155.072 86.0831 156.4 87.1491L160.156 82.4703ZM152.921 76.0024C151.771 74.8811 150.615 73.7139 149.452 72.5062L145.13 76.6681C146.331 77.9153 147.532 79.1275 148.731 80.2976L152.921 76.0024ZM146.087 68.9247C144.988 67.7281 143.883 66.502 142.774 65.2511L138.285 69.2324C139.414 70.5057 140.542 71.7581 141.669 72.984L146.087 68.9247ZM139.508 61.5193C138.434 60.2775 137.356 59.0179 136.273 57.7445L131.702 61.6312C132.793 62.9143 133.882 64.1869 134.969 65.444L139.508 61.5193ZM133.056 53.941C131.988 52.6734 130.918 51.3982 129.841 50.1174L125.247 53.9768C126.322 55.2563 127.396 56.535 128.467 57.8064L133.056 53.941ZM126.624 46.2927C125.547 45.016 124.466 43.7387 123.381 42.4653L118.814 46.3571C119.891 47.6204 120.965 48.8895 122.037 50.161L126.624 46.2927ZM120.112 38.6596C119.01 37.3883 117.903 36.1247 116.792 34.8733L112.305 38.8565C113.398 40.0877 114.489 41.3333 115.578 42.5895L120.112 38.6596ZM113.418 31.1288C112.273 29.8785 111.122 28.6448 109.967 27.4327L105.624 31.5728C106.749 32.7531 107.872 33.9574 108.994 35.1816L113.418 31.1288ZM106.426 23.8065C105.213 22.596 103.993 21.413 102.768 20.2632L98.6624 24.6387C99.8388 25.7425 101.014 26.8822 102.187 28.0533L106.426 23.8065ZM98.9881 16.8448C97.6742 15.7026 96.3518 14.6026 95.0209 13.5516L91.3024 18.2603C92.5526 19.2477 93.8023 20.2869 95.0516 21.373L98.9881 16.8448ZM90.9156 10.4913C89.457 9.47029 87.9859 8.51297 86.5024 7.62869L83.4303 12.7826C84.7769 13.5852 86.125 14.4618 87.4748 15.4067L90.9156 10.4913ZM81.9071 5.15254C80.2813 4.37142 78.6378 3.68456 76.9769 3.1049L74.9998 8.76983C76.4315 9.26947 77.8677 9.86835 79.3088 10.5607L81.9071 5.15254ZM71.7824 1.66774C70.0039 1.30641 68.2079 1.07796 66.3959 0.997132L66.1285 6.99117C67.613 7.05739 69.0988 7.24512 70.5878 7.54762L71.7824 1.66774ZM60.911 1.21271C59.1454 1.43262 57.3763 1.80068 55.6051 2.32546L57.3096 8.07827C58.7685 7.64601 60.2157 7.34568 61.6526 7.1667L60.911 1.21271ZM50.4719 4.29056C48.9304 5.0163 47.3929 5.86437 45.8592 6.83848L49.076 11.9033C50.408 11.0573 51.7252 10.3322 53.0276 9.71902L50.4719 4.29056ZM41.5197 9.94214C40.2152 10.9809 38.9132 12.1144 37.6132 13.3452L41.7383 17.7022C42.9215 16.582 44.0947 15.5616 45.2573 14.6357L41.5197 9.94214ZM33.9114 17.1207C32.82 18.3143 31.7291 19.5794 30.6385 20.9177L35.2896 24.7082C36.3124 23.4531 37.3291 22.2745 38.3395 21.1694L33.9114 17.1207ZM27.366 25.1553C26.4254 26.4377 25.4843 27.7765 24.5427 29.173L29.5175 32.5273C30.4169 31.1934 31.3125 29.9196 32.204 28.7041L27.366 25.1553ZM21.7873 33.4227C20.8681 34.8951 19.948 36.4239 19.027 38.0105L24.216 41.0228C25.1063 39.4893 25.9933 38.0155 26.8769 36.6L21.7873 33.4227ZM16.665 42.2024C15.8843 43.6288 15.1028 45.0975 14.3203 46.6093L19.6489 49.3672C20.4109 47.895 21.1706 46.4673 21.9283 45.083L16.665 42.2024ZM11.97 51.2749C11.5778 52.0744 11.1854 52.8848 10.7927 53.7063L16.206 56.294C16.5901 55.4905 16.9737 54.6984 17.3567 53.9176L11.97 51.2749Z" fill="#27A1DA"/>
</svg>
