<svg width="46" height="64" viewBox="0 0 46 64" fill="none" xmlns="http://www.w3.org/2000/svg">
<path d="M21.9389 61.0647C22.5246 61.6505 23.4744 61.6505 24.0602 61.0647L33.6061 51.5188C34.1919 50.933 34.1919 49.9833 33.6061 49.3975C33.0203 48.8117 32.0706 48.8117 31.4848 49.3975L22.9995 57.8828L14.5142 49.3975C13.9284 48.8117 12.9787 48.8117 12.3929 49.3975C11.8071 49.9833 11.8071 50.933 12.3929 51.5188L21.9389 61.0647ZM21.4995 0.995605V3.45429H24.4995V0.995605L21.4995 0.995605ZM21.4995 8.37166V13.289H24.4995V8.37166H21.4995ZM21.4995 18.2064V23.1238H24.4995V18.2064H21.4995ZM21.4995 28.0412V32.9585H24.4995V28.0412H21.4995ZM21.4995 37.8759L21.4995 42.7933H24.4995L24.4995 37.8759H21.4995ZM21.4995 47.7107V52.628H24.4995V47.7107H21.4995ZM21.4995 57.5454V60.0041H24.4995V57.5454H21.4995ZM20.8782 62.1254C22.0498 63.297 23.9493 63.297 25.1208 62.1254L44.2127 43.0335C45.3843 41.8619 45.3843 39.9624 44.2127 38.7909C43.0411 37.6193 41.1416 37.6193 39.9701 38.7909L22.9995 55.7614L6.02895 38.7909C4.85738 37.6193 2.95788 37.6193 1.78631 38.7909C0.614735 39.9624 0.614735 41.8619 1.78631 43.0335L20.8782 62.1254ZM19.9995 0.995605V3.45429L25.9995 3.45429V0.995605L19.9995 0.995605ZM19.9995 8.37166V13.289H25.9995V8.37166H19.9995ZM19.9995 18.2064V23.1238H25.9995V18.2064H19.9995ZM19.9995 28.0412V32.9585H25.9995V28.0412H19.9995ZM19.9995 37.8759L19.9995 42.7933H25.9995L25.9995 37.8759H19.9995ZM19.9995 47.7107V52.628H25.9995V47.7107H19.9995ZM19.9995 57.5454V60.0041H25.9995V57.5454H19.9995Z" fill="#27A1DA"/>
</svg>
