<svg width="187" height="69" viewBox="0 0 187 69" fill="none" xmlns="http://www.w3.org/2000/svg">
<path d="M184.497 14.0855C184.545 13.2584 183.912 12.5496 183.085 12.5024L169.607 11.7332C168.78 11.686 168.071 12.3182 168.024 13.1453C167.977 13.9724 168.609 14.6811 169.436 14.7283L181.417 15.4121L180.733 27.3926C180.686 28.2197 181.318 28.9284 182.145 28.9756C182.972 29.0228 183.681 28.3906 183.728 27.5635L184.497 14.0855ZM2.26576 2.85243C2.75032 3.55404 3.23419 4.24953 3.71739 4.93893L6.17405 3.21706C5.69487 2.5334 5.21494 1.84357 4.73424 1.14757L2.26576 2.85243ZM6.60876 9.0023C7.60104 10.3754 8.59069 11.7227 9.57792 13.0442L11.9813 11.2487C11.0039 9.94027 10.0236 8.60579 9.04029 7.24513L6.60876 9.0023ZM12.5822 16.9956C13.6259 18.3439 14.6672 19.6634 15.7062 20.954L18.0431 19.0727C17.0163 17.7974 15.9869 16.493 14.9544 15.1592L12.5822 16.9956ZM18.8672 24.7994C19.9605 26.1013 21.0517 27.3712 22.141 28.6094L24.3933 26.6277C23.3197 25.4074 22.2436 24.155 21.1646 22.8702L18.8672 24.7994ZM25.5056 32.3386C26.6523 33.577 27.7973 34.7801 28.9411 35.9481L31.0846 33.8492C29.961 32.7018 28.8352 31.519 27.7069 30.3004L25.5056 32.3386ZM32.5251 39.4972C33.7572 40.679 34.9883 41.8201 36.2189 42.9208L38.2189 40.6848C37.0152 39.6081 35.8096 38.4907 34.6017 37.3321L32.5251 39.4972ZM40.0212 46.1943C41.3325 47.279 42.6438 48.3181 43.9557 49.3118L45.767 46.9203C44.4906 45.9535 43.2129 44.9411 41.9335 43.8827L40.0212 46.1943ZM48.0665 52.2749C49.4813 53.243 50.8976 54.1585 52.3159 55.0218L53.8757 52.4592C52.5044 51.6246 51.1329 50.738 49.7605 49.799L48.0665 52.2749ZM56.7119 57.5264C58.2238 58.3291 59.7388 59.0731 61.2577 59.7584L62.4916 57.0239C61.0329 56.3657 59.5755 55.6502 58.1186 54.8767L56.7119 57.5264ZM65.9496 61.6848C67.5532 62.2784 69.1616 62.8075 70.7756 63.2727L71.6064 60.39C70.0646 59.9457 68.5264 59.4397 66.9909 58.8713L65.9496 61.6848ZM75.7152 64.4929C77.3838 64.837 79.0586 65.1139 80.7405 65.3242L81.1127 62.3474C79.5093 62.1469 77.9125 61.8829 76.3211 61.5547L75.7152 64.4929ZM85.8146 65.7561C87.5027 65.8331 89.1982 65.8447 90.9017 65.7915L90.8081 62.793C89.1803 62.8438 87.5617 62.8327 85.9513 62.7592L85.8146 65.7561ZM95.9701 65.4454C97.6361 65.2707 99.3102 65.0359 100.993 64.7418L100.477 61.7866C98.8594 62.0692 97.2533 62.2944 95.6572 62.4617L95.9701 65.4454ZM105.951 63.7104C107.569 63.3208 109.196 62.8781 110.833 62.3829L109.964 59.5115C108.381 59.9906 106.809 60.4181 105.249 60.7937L105.951 63.7104ZM115.632 60.7903C117.196 60.2267 118.768 59.6167 120.35 58.9609L119.201 56.1896C117.661 56.8281 116.132 57.421 114.615 57.9681L115.632 60.7903ZM124.953 56.9368C126.447 56.2433 127.949 55.5103 129.461 54.7382L128.096 52.0664C126.616 52.8222 125.148 53.5388 123.69 54.216L124.953 56.9368ZM133.897 52.376C135.346 51.5734 136.805 50.7359 138.273 49.8641L136.741 47.2847C135.298 48.1418 133.865 48.9641 132.444 49.7516L133.897 52.376ZM142.532 47.2553C143.922 46.3784 145.321 45.4716 146.729 44.5351L145.067 42.0371C143.679 42.9608 142.3 43.8544 140.931 44.7179L142.532 47.2553ZM150.891 41.6995C152.235 40.7625 153.588 39.7994 154.949 38.8103L153.185 36.3833C151.839 37.3614 150.503 38.3132 149.175 39.2385L150.891 41.6995ZM158.966 35.8354C160.287 34.8392 161.616 33.8193 162.955 32.7759L161.11 30.4102C159.784 31.444 158.467 32.4541 157.16 33.4401L158.966 35.8354ZM166.846 29.6947C168.136 28.6579 169.435 27.5999 170.742 26.5208L168.832 24.2075C167.535 25.2784 166.247 26.328 164.967 27.3561L166.846 29.6947ZM174.552 23.3348C175.812 22.2691 177.079 21.1843 178.354 20.0807L176.391 17.8123C175.124 18.9089 173.865 19.9865 172.614 21.0448L174.552 23.3348ZM182.105 16.8C182.734 16.2442 183.365 15.684 183.998 15.1194L182.001 12.8806C181.372 13.4421 180.744 13.9991 180.119 14.5516L182.105 16.8ZM185.995 14.1709C186.089 12.5168 184.825 11.0993 183.171 11.0049L156.215 9.46643C154.561 9.37202 153.143 10.6365 153.049 12.2906C152.954 13.9448 154.219 15.3623 155.873 15.4567L179.834 16.8242L178.466 40.7852C178.372 42.4394 179.636 43.8568 181.29 43.9513C182.945 44.0457 184.362 42.7812 184.457 41.1271L185.995 14.1709ZM1.03151 3.70487C1.51801 4.40927 2.00385 5.1076 2.48906 5.79986L7.40237 2.35612C6.92521 1.67533 6.44725 0.988341 5.96849 0.295133L1.03151 3.70487ZM5.39299 9.88089C6.38977 11.2602 7.38411 12.6138 8.37622 13.9419L13.183 10.351C12.2104 9.04908 11.2349 7.72099 10.2561 6.36655L5.39299 9.88089ZM11.396 17.9138C12.4454 19.2694 13.4926 20.5963 14.5378 21.8947L19.2115 18.132C18.1909 16.8644 17.1674 15.5675 16.1406 14.241L11.396 17.9138ZM17.7186 25.7641C18.819 27.0744 19.9176 28.3531 21.0148 29.6002L25.5195 25.6369C24.4538 24.4256 23.3851 23.1818 22.3133 21.9055L17.7186 25.7641ZM24.405 33.3578C25.5608 34.606 26.7155 35.8192 27.8693 36.9976L32.1563 32.7998C31.0429 31.6627 29.9267 30.4899 28.8075 29.2812L24.405 33.3578ZM31.4868 40.5798C32.7309 41.7731 33.9748 42.9261 35.2189 44.0388L39.2189 39.5667C38.0286 38.5021 36.8358 37.3965 35.64 36.2496L31.4868 40.5798ZM39.0651 47.35C40.3923 48.448 41.7204 49.5005 43.05 50.5075L46.6726 45.7245C45.4139 44.7712 44.1531 43.7722 42.8897 42.727L39.0651 47.35ZM47.2194 53.5129C48.6555 54.4955 50.0941 55.4255 51.536 56.3031L54.6555 51.1779C53.3078 50.3576 51.9587 49.4855 50.6076 48.561L47.2194 53.5129ZM56.0085 58.8513C57.548 59.6686 59.0918 60.4267 60.6407 61.1257L63.1086 55.6567C61.6799 55.012 60.2513 54.3107 58.822 53.5519L56.0085 58.8513ZM65.4289 63.0916C67.0666 63.6977 68.7101 64.2385 70.3602 64.714L72.0218 58.9487C70.5161 58.5148 69.013 58.0203 67.5116 57.4646L65.4289 63.0916ZM75.4123 65.962C77.1194 66.314 78.8332 66.5974 80.5544 66.8126L81.2988 60.859C79.7347 60.6634 78.1769 60.4059 76.624 60.0856L75.4123 65.962ZM85.7462 67.2545C87.4733 67.3333 89.2071 67.3451 90.9485 67.2908L90.7613 61.2937C89.1713 61.3433 87.5912 61.3325 86.0197 61.2608L85.7462 67.2545ZM96.1265 66.9372C97.8275 66.7589 99.5355 66.5193 101.251 66.2194L100.218 60.309C98.634 60.5859 97.0619 60.8062 95.5008 60.9699L96.1265 66.9372ZM106.302 65.1687C107.95 64.7722 109.604 64.3219 111.267 63.8186L109.529 58.0758C107.973 58.5469 106.429 58.9667 104.898 59.3354L106.302 65.1687ZM116.141 62.2014C117.727 61.6295 119.321 61.011 120.924 60.3466L118.627 54.8039C117.107 55.4338 115.601 56.0182 114.106 56.557L116.141 62.2014ZM125.585 58.2972C127.096 57.5955 128.615 56.8543 130.143 56.074L127.414 50.7306C125.95 51.4782 124.498 52.1865 123.058 52.8555L125.585 58.2972ZM134.624 53.6882C136.087 52.878 137.558 52.033 139.039 51.1537L135.975 45.995C134.544 46.8447 133.125 47.6595 131.717 48.4394L134.624 53.6882ZM143.332 48.524C144.733 47.6404 146.142 46.727 147.56 45.7841L144.237 40.7881C142.858 41.7053 141.489 42.5924 140.131 43.4492L143.332 48.524ZM151.749 42.93C153.101 41.9872 154.462 41.0184 155.831 40.0237L152.304 35.1698C150.965 36.1423 149.637 37.0885 148.317 38.008L151.749 42.93ZM159.869 37.033C161.197 36.0318 162.533 35.007 163.877 33.9588L160.187 29.2274C158.868 30.2564 157.558 31.2615 156.257 32.2425L159.869 37.033ZM167.786 30.864C169.081 29.8229 170.385 28.7607 171.697 27.6774L167.877 23.0509C166.585 24.1176 165.302 25.163 164.028 26.1867L167.786 30.864ZM175.521 24.4799C176.785 23.4104 178.056 22.322 179.336 21.2148L175.409 16.6781C174.146 17.7712 172.892 18.8452 171.645 19.8998L175.521 24.4799ZM183.098 17.9242C183.729 17.3668 184.362 16.805 184.997 16.2387L181.003 11.7613C180.375 12.3212 179.75 12.8766 179.126 13.4275L183.098 17.9242Z" fill="#27A1DA"/>
</svg>
