<svg width="228" height="98" viewBox="0 0 228 98" fill="none" xmlns="http://www.w3.org/2000/svg">
<path d="M216.524 55.976C216.248 56.7571 215.391 57.1667 214.61 56.8909L201.881 52.3952C201.099 52.1194 200.69 51.2625 200.966 50.4813C201.242 49.7002 202.098 49.2906 202.88 49.5665L214.195 53.5626L218.191 42.2475C218.467 41.4664 219.324 41.0568 220.105 41.3326C220.886 41.6085 221.295 42.4654 221.02 43.2465L216.524 55.976ZM4.55984 18.0951C4.78755 18.9619 5.01534 19.8198 5.24323 20.669L2.34574 21.4466C2.11647 20.5922 1.88732 19.7291 1.6583 18.8574L4.55984 18.0951ZM6.61164 25.6599C7.06815 27.2888 7.525 28.8833 7.98222 30.4438L5.10325 31.2874C4.64261 29.7152 4.18251 28.1094 3.72293 26.4694L6.61164 25.6599ZM9.35493 35.0239C9.84852 36.6333 10.3425 38.2038 10.8369 39.736L7.98185 40.6572C7.48284 39.1107 6.98449 37.5264 6.48679 35.9036L9.35493 35.0239ZM12.4633 44.6354C13.006 46.2232 13.549 47.7658 14.0925 49.2642L11.2723 50.2871C10.7222 48.7705 10.1729 47.2102 9.62454 45.6056L12.4633 44.6354ZM15.7242 53.6272C16.3747 55.3131 17.0258 56.9369 17.6774 58.5L14.9083 59.6543C14.2459 58.0653 13.585 56.4167 12.9253 54.7072L15.7242 53.6272ZM19.6386 63.0198C20.3081 64.5003 20.978 65.9182 21.6482 67.2753L18.9584 68.6037C18.2722 67.2144 17.5878 65.7656 16.9051 64.256L19.6386 63.0198ZM24.0376 71.8559C24.8343 73.2986 25.6311 74.6576 26.4278 75.9359L23.8818 77.5227C23.0552 76.1965 22.2319 74.7918 21.4115 73.3063L24.0376 71.8559ZM29.2224 80.0947C30.2 81.4373 31.1762 82.6621 32.1506 83.775L29.8934 85.7512C28.8548 84.5649 27.8229 83.2693 26.7972 81.8605L29.2224 80.0947ZM35.6015 87.2662C36.8415 88.3619 38.0758 89.2845 39.3038 90.0485L37.7191 92.5958C36.3367 91.7358 34.969 90.7107 33.615 89.5144L35.6015 87.2662ZM43.4581 92.0576C44.9579 92.5806 46.4589 92.8908 47.9644 93.0085L47.7305 95.9994C45.9673 95.8615 44.213 95.498 42.4703 94.8903L43.4581 92.0576ZM52.5374 92.7975C54.0205 92.5527 55.5222 92.1411 57.0441 91.5731L58.0932 94.3837C56.4107 95.0116 54.7212 95.4777 53.0259 95.7575L52.5374 92.7975ZM61.4098 89.5545C62.7642 88.8134 64.1306 87.9643 65.5091 87.0159L67.2094 89.4876C65.758 90.486 64.3048 91.3902 62.8498 92.1863L61.4098 89.5545ZM69.3917 84.1163C70.6467 83.1088 71.9089 82.0307 73.1787 80.8894L75.1841 83.1206C73.8781 84.2945 72.5733 85.4092 71.2698 86.4557L69.3917 84.1163ZM76.7356 77.5525C77.8977 76.419 79.0649 75.2406 80.2374 74.023L82.3984 76.104C81.2069 77.3413 80.0175 78.5422 78.8303 79.7001L76.7356 77.5525ZM83.6266 70.4158C84.7326 69.2119 85.8429 67.9793 86.9574 66.7227L89.2017 68.7134C88.0773 69.9811 86.9553 71.2269 85.8357 72.4455L83.6266 70.4158ZM90.2356 62.9768C91.3129 61.7311 92.3938 60.4683 93.4786 59.1925L95.7641 61.1359C94.6751 62.4165 93.5887 63.6858 92.5048 64.9392L90.2356 62.9768ZM96.7 55.3837C97.7685 54.1151 98.8401 52.8391 99.9159 51.5586L102.213 53.4883C101.138 54.7681 100.065 56.0459 98.9945 57.3163L96.7 55.3837ZM103.132 47.7361C104.207 46.4607 105.287 45.1854 106.37 43.9146L108.653 45.8605C107.574 47.1263 106.498 48.3975 105.425 49.6703L103.132 47.7361ZM109.631 40.1184C110.729 38.8509 111.832 37.5918 112.938 36.3454L115.182 38.3371C114.084 39.5733 112.99 40.8234 111.898 42.0833L109.631 40.1184ZM116.297 32.6183C117.436 31.3745 118.58 30.1482 119.728 28.9441L121.899 31.0141C120.767 32.2023 119.637 33.414 118.509 34.6447L116.297 32.6183ZM123.243 25.3445C124.446 24.1438 125.654 22.9717 126.867 21.8334L128.92 24.0212C127.731 25.1365 126.546 26.287 125.362 27.4679L123.243 25.3445ZM130.605 18.4532C131.903 17.325 133.207 16.2402 134.518 15.2051L136.377 17.5595C135.106 18.5627 133.839 19.6171 132.573 20.7172L130.605 18.4532ZM138.553 12.1965C139.985 11.1945 141.425 10.2573 142.875 9.39348L144.411 11.9704C143.03 12.7934 141.651 13.6902 140.274 14.6542L138.553 12.1965ZM147.351 6.98091C148.931 6.22197 150.523 5.5571 152.126 4.99745L153.115 7.82991C151.626 8.34956 150.138 8.97044 148.651 9.68501L147.351 6.98091ZM157.125 3.61403C158.831 3.26741 160.55 3.04914 162.28 2.97196L162.414 5.96898C160.847 6.03885 159.284 6.23676 157.722 6.55397L157.125 3.61403ZM167.512 3.17752C169.196 3.38721 170.885 3.73833 172.578 4.23998L171.725 7.11639C170.188 6.66099 168.661 6.34373 167.142 6.15452L167.512 3.17752ZM177.498 6.12399C178.98 6.8216 180.462 7.63892 181.946 8.581L180.337 11.1134C178.955 10.2354 177.582 9.47956 176.22 8.83823L177.498 6.12399ZM186.155 11.5919C187.424 12.6024 188.694 13.7076 189.964 14.9108L187.902 17.0893C186.689 15.9414 185.484 14.8928 184.286 13.9387L186.155 11.5919ZM193.59 18.6092C194.662 19.7807 195.734 21.0242 196.808 22.3416L194.482 24.2369C193.442 22.961 192.407 21.7608 191.376 20.6335L193.59 18.6092ZM200.033 26.5188C200.962 27.7845 201.891 29.107 202.822 30.4879L200.335 32.1651C199.425 30.8155 198.518 29.5254 197.614 28.2932L200.033 26.5188ZM205.549 34.6933C206.459 36.1515 207.371 37.6666 208.285 39.2399L205.69 40.7461C204.792 39.1992 203.897 37.7117 203.004 36.282L205.549 34.6933ZM210.628 43.3989C211.403 44.8147 212.179 46.2732 212.956 47.7751L210.292 49.1541C209.525 47.672 208.76 46.234 207.996 44.8392L210.628 43.3989ZM215.292 52.4119C215.682 53.2067 216.072 54.0125 216.463 54.8296L213.756 56.1234C213.37 55.3154 212.984 54.5187 212.599 53.7332L215.292 52.4119ZM217.938 56.4755C217.387 58.0378 215.673 58.857 214.111 58.3052L188.652 49.314C187.089 48.7622 186.27 47.0485 186.822 45.4862C187.374 43.9239 189.087 43.1047 190.65 43.6565L213.28 51.6487L221.272 29.0185C221.824 27.4562 223.538 26.637 225.1 27.1888C226.662 27.7405 227.481 29.4543 226.93 31.0166L217.938 56.4755ZM6.01062 17.714C6.23766 18.5782 6.46478 19.4336 6.69197 20.2803L0.897001 21.8354C0.667031 20.9784 0.437205 20.1128 0.207522 19.2385L6.01062 17.714ZM8.056 25.2551C8.51096 26.8786 8.9662 28.4674 9.42171 30.0221L3.66376 31.7091C3.20142 30.1311 2.73969 28.5196 2.27858 26.8742L8.056 25.2551ZM10.789 34.5841C11.2805 36.1868 11.7724 37.7503 12.2644 39.2754L6.55432 41.1179C6.053 39.5641 5.55247 37.9729 5.05272 36.3434L10.789 34.5841ZM13.8827 44.1504C14.4225 45.7297 14.9624 47.2635 15.5026 48.7527L9.86217 50.7986C9.30875 49.2728 8.75641 47.7038 8.20514 46.0906L13.8827 44.1504ZM17.1236 53.0872C17.7696 54.7613 18.4157 56.3727 19.0619 57.9229L13.5238 60.2314C12.856 58.6295 12.1901 56.9685 11.5259 55.2472L17.1236 53.0872ZM21.0053 62.4017C21.6682 63.8676 22.3308 65.2701 22.9931 66.6111L17.6134 69.268C16.9193 67.8625 16.2277 66.3983 15.5383 64.874L21.0053 62.4017ZM25.3507 71.1308C26.1356 72.552 26.919 73.8882 27.7008 75.1426L22.6087 78.3161C21.7673 76.9659 20.9306 75.5384 20.0984 74.0314L25.3507 71.1308ZM30.435 79.2117C31.3886 80.5213 32.3369 81.7107 33.2791 82.7869L28.7648 86.7392C27.6942 85.5164 26.6344 84.1853 25.5846 82.7434L30.435 79.2117ZM36.5947 86.1421C37.7778 87.1875 38.9454 88.0589 40.0962 88.7749L36.9267 93.8694C35.4672 92.9614 34.0327 91.8851 32.6218 90.6384L36.5947 86.1421ZM43.952 90.6412C45.3303 91.1218 46.7047 91.4054 48.0813 91.5131L47.6136 97.4948C45.7215 97.3469 43.8405 96.9567 41.9765 96.3067L43.952 90.6412ZM52.2931 91.3175C53.6701 91.0902 55.0779 90.7059 56.5196 90.1678L58.6177 95.789C56.855 96.4469 55.0716 96.9401 53.2701 97.2374L52.2931 91.3175ZM60.6898 88.2386C61.994 87.525 63.3169 86.7034 64.6589 85.7801L68.0596 90.7234C66.5717 91.7469 65.075 92.6786 63.5698 93.5022L60.6898 88.2386ZM68.4527 82.9466C69.6833 81.9586 70.9243 80.8988 72.1759 79.7739L76.1868 84.2362C74.8627 85.4264 73.5367 86.5594 72.2089 87.6254L68.4527 82.9466ZM75.6883 76.4787C76.8378 75.3574 77.994 74.1903 79.1569 72.9826L83.4788 77.1444C82.2778 78.3916 81.0774 79.6038 79.8776 80.7739L75.6883 76.4787ZM82.522 69.401C83.6213 68.2044 84.7256 66.9784 85.8352 65.7274L90.3239 69.7088C89.1945 70.9821 88.0666 72.2344 86.9403 73.4603L82.522 69.401ZM89.1011 61.9956C90.175 60.7538 91.2531 59.4942 92.3358 58.2209L96.9068 62.1075C95.8158 63.3906 94.7266 64.6632 93.6394 65.9203L89.1011 61.9956ZM95.5527 54.4174C96.6205 53.1497 97.6914 51.8746 98.7674 50.5937L103.361 54.4531C102.286 55.7326 101.213 57.0113 100.142 58.2827L95.5527 54.4174ZM101.985 46.7691C103.062 45.4924 104.143 44.215 105.228 42.9417L109.795 46.8334C108.718 48.0967 107.644 49.3659 106.572 50.6374L101.985 46.7691ZM108.497 39.136C109.599 37.8647 110.706 36.601 111.817 35.3496L116.304 39.3329C115.211 40.564 114.12 41.8096 113.031 43.0658L108.497 39.136ZM115.191 31.6051C116.336 30.3548 117.487 29.1212 118.642 27.909L122.985 32.0491C121.86 33.2294 120.737 34.4337 119.615 35.6579L115.191 31.6051ZM122.183 24.2828C123.396 23.0723 124.616 21.8894 125.841 20.7395L129.946 25.115C128.77 26.2188 127.595 27.3585 126.422 28.5296L122.183 24.2828ZM129.621 17.3211C130.935 16.1789 132.257 15.0789 133.588 14.0279L137.306 18.7367C136.056 19.724 134.807 20.7632 133.557 21.8493L129.621 17.3211ZM137.693 10.9676C139.152 9.9466 140.623 8.98929 142.107 8.10501L145.179 13.2589C143.832 14.0615 142.484 14.9381 141.134 15.883L137.693 10.9676ZM146.702 5.62886C148.328 4.84774 149.971 4.16087 151.632 3.58122L153.609 9.24615C152.177 9.74579 150.741 10.3447 149.3 11.0371L146.702 5.62886ZM156.827 2.14406C158.605 1.78273 160.401 1.55428 162.213 1.47345L162.48 7.46749C160.996 7.53371 159.51 7.72144 158.021 8.02394L156.827 2.14406ZM167.698 1.68903C169.463 1.90894 171.233 2.277 173.004 2.80177L171.299 8.55459C169.84 8.12233 168.393 7.822 166.956 7.64302L167.698 1.68903ZM178.137 4.76687C179.678 5.49262 181.216 6.34069 182.75 7.3148L179.533 12.3796C178.201 11.5336 176.884 10.8085 175.581 10.1953L178.137 4.76687ZM187.089 10.4185C188.394 11.4572 189.696 12.5907 190.996 13.8215L186.871 18.1786C185.687 17.0583 184.514 16.0379 183.352 15.1121L187.089 10.4185ZM194.698 17.597C195.789 18.7907 196.88 20.0557 197.97 21.394L193.319 25.1845C192.297 23.9295 191.28 22.7508 190.269 21.6457L194.698 17.597ZM201.243 25.6316C202.184 26.914 203.125 28.2528 204.066 29.6493L199.091 33.0036C198.192 31.6697 197.296 30.3959 196.405 29.1804L201.243 25.6316ZM206.822 33.899C207.741 35.3714 208.661 36.9002 209.582 38.4868L204.393 41.4992C203.503 39.9656 202.616 38.4918 201.732 37.0763L206.822 33.899ZM211.944 42.6787C212.725 44.1051 213.506 45.5738 214.289 47.0856L208.96 49.8435C208.198 48.3714 207.438 46.9436 206.681 45.5593L211.944 42.6787ZM216.639 51.7513C217.031 52.5507 217.424 53.3611 217.816 54.1827L212.403 56.7703C212.019 55.9668 211.635 55.1747 211.252 54.3939L216.639 51.7513Z" fill="#27A1DA"/>
</svg>
