<svg width="229" height="98" viewBox="0 0 229 98" fill="none" xmlns="http://www.w3.org/2000/svg">
<path d="M11.5854 55.4997C11.8613 56.2808 12.7182 56.6904 13.4993 56.4145L26.2288 51.9189C27.01 51.643 27.4195 50.7862 27.1437 50.005C26.8678 49.2239 26.0109 48.8143 25.2298 49.0901L13.9147 53.0863L9.91858 41.7712C9.64271 40.99 8.78583 40.5804 8.00469 40.8563C7.22355 41.1322 6.81394 41.9891 7.08981 42.7702L11.5854 55.4997ZM223.55 17.6188C223.322 18.4856 223.094 19.3435 222.866 20.1927L225.764 20.9703C225.993 20.1159 226.222 19.2528 226.451 18.381L223.55 17.6188ZM221.498 25.1836C221.041 26.8125 220.584 28.407 220.127 29.9675L223.006 30.811C223.467 29.2388 223.927 27.633 224.386 25.9931L221.498 25.1836ZM218.754 34.5476C218.261 36.157 217.767 37.7275 217.272 39.2597L220.128 40.1809C220.627 38.6344 221.125 37.05 221.623 35.4273L218.754 34.5476ZM215.646 44.1591C215.103 45.7469 214.56 47.2895 214.017 48.7879L216.837 49.8108C217.387 48.2942 217.936 46.7339 218.485 45.1293L215.646 44.1591ZM212.385 53.1509C211.735 54.8368 211.084 56.4606 210.432 58.0237L213.201 59.178C213.863 57.5889 214.524 55.9404 215.184 54.2309L212.385 53.1509ZM208.471 62.5435C207.801 64.0239 207.131 65.4419 206.461 66.799L209.151 68.1274C209.837 66.7381 210.522 65.2893 211.204 63.7796L208.471 62.5435ZM204.072 71.3796C203.275 72.8223 202.478 74.1813 201.682 75.4596L204.228 77.0464C205.054 75.7202 205.878 74.3155 206.698 72.83L204.072 71.3796ZM198.887 79.6183C197.909 80.961 196.933 82.1858 195.959 83.2987L198.216 85.2748C199.255 84.0886 200.286 82.793 201.312 81.3842L198.887 79.6183ZM192.508 86.7899C191.268 87.8856 190.034 88.8082 188.806 89.5722L190.39 92.1195C191.773 91.2595 193.14 90.2344 194.494 89.038L192.508 86.7899ZM184.651 91.5813C183.151 92.1042 181.65 92.4145 180.145 92.5322L180.379 95.5231C182.142 95.3852 183.896 95.0216 185.639 94.414L184.651 91.5813ZM175.572 92.3212C174.089 92.0764 172.587 91.6648 171.065 91.0968L170.016 93.9074C171.699 94.5353 173.388 95.0013 175.083 95.2811L175.572 92.3212ZM166.7 89.0782C165.345 88.3371 163.979 87.4879 162.6 86.5396L160.9 89.0112C162.351 90.0097 163.805 90.9139 165.26 91.71L166.7 89.0782ZM158.718 83.64C157.463 82.6325 156.2 81.5544 154.931 80.4131L152.925 82.6443C154.231 83.8182 155.536 84.9329 156.84 85.9794L158.718 83.64ZM151.374 77.0762C150.212 75.9427 149.044 74.7643 147.872 73.5467L145.711 75.6277C146.903 76.865 148.092 78.0659 149.279 79.2238L151.374 77.0762ZM144.483 69.9395C143.377 68.7356 142.267 67.503 141.152 66.2464L138.908 68.2371C140.032 69.5048 141.154 70.7506 142.274 71.9692L144.483 69.9395ZM137.874 62.5005C136.797 61.2548 135.716 59.992 134.631 58.7162L132.345 60.6595C133.434 61.9402 134.521 63.2095 135.605 64.4628L137.874 62.5005ZM131.409 54.9074C130.341 53.6388 129.269 52.3628 128.193 51.0822L125.896 53.012C126.972 54.2918 128.045 55.5696 129.115 56.84L131.409 54.9074ZM124.978 47.2598C123.902 45.9844 122.823 44.7091 121.74 43.4383L119.456 45.3842C120.535 46.65 121.611 47.9212 122.684 49.194L124.978 47.2598ZM118.479 39.6421C117.38 38.3746 116.277 37.1155 115.171 35.8691L112.928 37.8607C114.025 39.097 115.12 40.3471 116.212 41.607L118.479 39.6421ZM111.812 32.142C110.673 30.8982 109.529 29.6719 108.381 28.4677L106.21 30.5378C107.343 31.726 108.473 32.9376 109.6 34.1684L111.812 32.142ZM104.866 24.8682C103.663 23.6675 102.455 22.4954 101.242 21.3571L99.1893 23.5448C100.378 24.6601 101.564 25.8106 102.747 26.9916L104.866 24.8682ZM97.5045 17.9769C96.2067 16.8487 94.9025 15.7638 93.5918 14.7288L91.7325 17.0831C93.0029 18.0864 94.2708 19.1408 95.5362 20.2409L97.5045 17.9769ZM89.5559 11.7202C88.1245 10.7182 86.6841 9.78102 85.2349 8.91716L83.6988 11.4941C85.0796 12.3171 86.4584 13.2139 87.8355 14.1779L89.5559 11.7202ZM80.758 6.50459C79.1784 5.74565 77.5867 5.08078 75.9831 4.52113L74.9946 7.3536C76.4836 7.87324 77.9716 8.49412 79.4589 9.20869L80.758 6.50459ZM70.9842 3.13771C69.2781 2.79109 67.5596 2.57282 65.8295 2.49564L65.6958 5.49266C67.2622 5.56253 68.8256 5.76044 70.387 6.07765L70.9842 3.13771ZM60.5969 2.70121C58.9135 2.91089 57.2249 3.26201 55.5317 3.76366L56.3839 6.64007C57.921 6.18468 59.4486 5.86742 60.9677 5.6782L60.5969 2.70121ZM50.6113 5.64767C49.1296 6.34528 47.6471 7.1626 46.1639 8.10468L47.7723 10.6371C49.1547 9.75906 50.527 9.00325 51.8892 8.36191L50.6113 5.64767ZM41.9546 11.1155C40.6856 12.1261 39.4158 13.2313 38.145 14.4345L40.2075 16.613C41.4199 15.4651 42.6253 14.4164 43.8234 13.4623L41.9546 11.1155ZM34.5189 18.1329C33.4478 19.3044 32.3754 20.5478 31.3017 21.8653L33.6273 23.7605C34.667 22.4847 35.7023 21.2845 36.733 20.1572L34.5189 18.1329ZM28.076 26.0425C27.1476 27.3082 26.2179 28.6307 25.2869 30.0116L27.7743 31.6887C28.6843 30.3392 29.5912 29.0491 30.495 27.8169L28.076 26.0425ZM22.5602 34.217C21.6499 35.6752 20.7381 37.1902 19.8247 38.7635L22.4192 40.2697C23.3172 38.7229 24.2125 37.2354 25.105 35.8057L22.5602 34.217ZM17.4813 42.9226C16.7064 44.3384 15.9303 45.7969 15.1529 47.2988L17.8172 48.6777C18.5843 47.1957 19.3495 45.7577 20.1129 44.3629L17.4813 42.9226ZM12.8172 51.9356C12.4273 52.7304 12.0371 53.5362 11.6465 54.3532L14.3532 55.6471C14.7394 54.8391 15.1252 54.0424 15.5105 53.2569L12.8172 51.9356ZM10.1711 55.9992C10.7228 57.5615 12.4366 58.3807 13.9989 57.8289L39.4578 48.8377C41.0201 48.2859 41.8393 46.5722 41.2875 45.0099C40.7358 43.4476 39.022 42.6284 37.4597 43.1801L14.8296 51.1724L6.83735 28.5422C6.28559 26.9799 4.57183 26.1607 3.00955 26.7125C1.44725 27.2642 0.628052 28.978 1.17981 30.5403L10.1711 55.9992ZM222.099 17.2377C221.872 18.1019 221.645 18.9573 221.417 19.804L227.212 21.359C227.442 20.5021 227.672 19.6365 227.902 18.7622L222.099 17.2377ZM220.053 24.7788C219.598 26.4023 219.143 27.9911 218.688 29.5458L224.446 31.2328C224.908 29.6548 225.37 28.0433 225.831 26.3979L220.053 24.7788ZM217.32 34.1078C216.829 35.7105 216.337 37.274 215.845 38.7991L221.555 40.6415C222.056 39.0878 222.557 37.4966 223.057 35.8671L217.32 34.1078ZM214.227 43.674C213.687 45.2533 213.147 46.7872 212.607 48.2764L218.247 50.3223C218.801 48.7965 219.353 47.2275 219.904 45.6143L214.227 43.674ZM210.986 52.6109C210.34 54.285 209.694 55.8964 209.047 57.4466L214.586 59.7551C215.253 58.1531 215.919 56.4922 216.583 54.7709L210.986 52.6109ZM207.104 61.9254C206.441 63.3912 205.779 64.7938 205.116 66.1348L210.496 68.7916C211.19 67.3862 211.882 65.922 212.571 64.3977L207.104 61.9254ZM202.759 70.6545C201.974 72.0757 201.19 73.4119 200.409 74.6663L205.501 77.8397C206.342 76.4896 207.179 75.0621 208.011 73.5551L202.759 70.6545ZM197.674 78.7354C196.721 80.045 195.772 81.2344 194.83 82.3106L199.345 86.2629C200.415 85.04 201.475 83.709 202.525 82.2671L197.674 78.7354ZM191.515 85.6658C190.332 86.7112 189.164 87.5826 188.013 88.2986L191.183 93.3931C192.642 92.4851 194.077 91.4088 195.488 90.1621L191.515 85.6658ZM184.157 90.1649C182.779 90.6455 181.405 90.9291 180.028 91.0368L180.496 97.0185C182.388 96.8706 184.269 96.4803 186.133 95.8304L184.157 90.1649ZM175.816 90.8412C174.439 90.6139 173.031 90.2295 171.59 89.6915L169.492 95.3127C171.254 95.9706 173.038 96.4638 174.839 96.7611L175.816 90.8412ZM167.42 87.7623C166.115 87.0487 164.793 86.2271 163.45 85.3038L160.05 90.247C161.538 91.2706 163.034 92.2023 164.54 93.0259L167.42 87.7623ZM159.657 82.4703C158.426 81.4823 157.185 80.4225 155.933 79.2975L151.923 83.7599C153.247 84.9501 154.573 86.0831 155.9 87.1491L159.657 82.4703ZM152.421 76.0024C151.272 74.8811 150.115 73.7139 148.952 72.5062L144.631 76.6681C145.832 77.9153 147.032 79.1275 148.232 80.2976L152.421 76.0024ZM145.587 68.9247C144.488 67.7281 143.384 66.502 142.274 65.2511L137.785 69.2324C138.915 70.5057 140.043 71.7581 141.169 72.984L145.587 68.9247ZM139.008 61.5193C137.934 60.2775 136.856 59.0179 135.774 57.7445L131.203 61.6312C132.294 62.9143 133.383 64.1869 134.47 65.444L139.008 61.5193ZM132.557 53.941C131.489 52.6734 130.418 51.3982 129.342 50.1174L124.748 53.9768C125.823 55.2563 126.897 56.535 127.968 57.8064L132.557 53.941ZM126.124 46.2927C125.048 45.016 123.966 43.7387 122.881 42.4653L118.315 46.3571C119.391 47.6204 120.465 48.8895 121.538 50.161L126.124 46.2927ZM119.612 38.6596C118.51 37.3883 117.404 36.1247 116.293 34.8733L111.806 38.8565C112.899 40.0877 113.989 41.3333 115.078 42.5895L119.612 38.6596ZM112.918 31.1288C111.773 29.8785 110.623 28.6448 109.467 27.4327L105.124 31.5728C106.249 32.7531 107.373 33.9574 108.494 35.1816L112.918 31.1288ZM105.926 23.8065C104.713 22.596 103.494 21.413 102.268 20.2632L98.1629 24.6387C99.3393 25.7425 100.514 26.8822 101.688 28.0533L105.926 23.8065ZM98.4886 16.8448C97.1747 15.7026 95.8523 14.6026 94.5214 13.5516L90.8029 18.2603C92.0531 19.2477 93.3028 20.2869 94.5521 21.373L98.4886 16.8448ZM90.4161 10.4913C88.9575 9.47029 87.4864 8.51297 86.0029 7.62869L82.9308 12.7826C84.2773 13.5852 85.6254 14.4618 86.9753 15.4067L90.4161 10.4913ZM81.4076 5.15254C79.7818 4.37142 78.1383 3.68456 76.4773 3.1049L74.5003 8.76983C75.932 9.26947 77.3681 9.86835 78.8093 10.5607L81.4076 5.15254ZM71.2829 1.66774C69.5043 1.30641 67.7084 1.07796 65.8963 0.997132L65.629 6.99117C67.1135 7.05739 68.5993 7.24512 70.0883 7.54762L71.2829 1.66774ZM60.4115 1.21271C58.6459 1.43262 56.8768 1.80068 55.1056 2.32546L56.81 8.07827C58.269 7.64601 59.7162 7.34568 61.1531 7.1667L60.4115 1.21271ZM49.9724 4.29056C48.4309 5.0163 46.8934 5.86437 45.3597 6.83848L48.5765 11.9033C49.9084 11.0573 51.2257 10.3322 52.5281 9.71902L49.9724 4.29056ZM41.0202 9.94214C39.7157 10.9809 38.4137 12.1144 37.1137 13.3452L41.2388 17.7022C42.422 16.582 43.5951 15.5616 44.7578 14.6357L41.0202 9.94214ZM33.4119 17.1207C32.3205 18.3143 31.2296 19.5794 30.139 20.9177L34.79 24.7082C35.8129 23.4531 36.8295 22.2745 37.84 21.1694L33.4119 17.1207ZM26.8665 25.1553C25.9259 26.4377 24.9848 27.7765 24.0432 29.173L29.018 32.5273C29.9174 31.1934 30.8129 29.9196 31.7045 28.7041L26.8665 25.1553ZM21.2878 33.4227C20.3686 34.8951 19.4485 36.4239 18.5275 38.0105L23.7165 41.0228C24.6067 39.4893 25.4938 38.0155 26.3774 36.6L21.2878 33.4227ZM16.1655 42.2024C15.3848 43.6288 14.6032 45.0975 13.8208 46.6093L19.1494 49.3672C19.9113 47.895 20.6711 46.4673 21.4287 45.083L16.1655 42.2024ZM11.4705 51.2749C11.0783 52.0744 10.6859 52.8848 10.2932 53.7063L15.7065 56.294C16.0906 55.4905 16.4741 54.6984 16.8572 53.9176L11.4705 51.2749Z" fill="#1B2531"/>
</svg>
