<svg width="50" height="50" viewBox="0 0 50 50" fill="none" xmlns="http://www.w3.org/2000/svg">
<g clip-path="url(#clip0)">
<path d="M1.94913 0.083787C1.95948 0.0874003 1.96993 0.0903299 1.98018 0.0942362L48.8543 17.672C49.97 18.0905 50.1445 19.601 49.1525 20.2625L38.8752 27.114C38.8392 27.2647 35.1302 42.7678 35.1057 42.8593C34.8173 43.941 33.4565 44.3169 32.656 43.5164L25.3022 36.1626L13.9969 43.6995C13.1691 44.2513 12.0475 43.8339 11.7759 42.8831C11.6798 42.5467 0.0631943 1.89218 0.044445 1.8164C-0.236317 0.675778 0.864464 -0.295998 1.94913 0.083787ZM45.148 19.411L12.2186 7.06249L37.5834 24.4541L45.148 19.411ZM31.7376 30.1118C31.7419 30.1182 31.7452 30.1249 31.7494 30.1314C31.7636 30.1539 31.7773 30.1768 31.7903 30.2C31.8722 30.3435 31.9288 30.4954 31.9582 30.6504L33.5934 36.5977L35.922 26.867L13.2343 11.3109C32.7408 31.0872 31.6158 29.9269 31.7348 30.108C31.7356 30.1092 31.7368 30.1104 31.7376 30.1118ZM30.8109 37.5281L29.6402 33.2705L27.788 34.5053L30.8109 37.5281ZM14.0415 40.1486C14.1788 40.0571 27.9541 30.8736 28.2321 30.6882L4.44952 6.57665L14.0415 40.1486Z" fill="black"/>
<path d="M40.1753 40.1754C40.7472 39.6033 41.6748 39.6033 42.2468 40.1754L49.5709 47.4994C50.143 48.0715 50.143 48.9989 49.5709 49.571C48.999 50.1431 48.0713 50.1431 47.4994 49.571L40.1753 42.2469C39.6032 41.6748 39.6032 40.7474 40.1753 40.1754Z" fill="black"/>
<path d="M40.1753 31.3863C40.7472 30.8143 41.6748 30.8143 42.2468 31.3863L49.5709 38.7105C50.143 39.2825 50.143 40.21 49.5709 40.782C48.999 41.3541 48.0713 41.3541 47.4994 40.782L40.1753 33.4579C39.6032 32.8858 39.6032 31.9584 40.1753 31.3863Z" fill="black"/>
</g>
<defs>
<clipPath id="clip0">
</clipPath>
</defs>
</svg>
